<?xml version="1.0" encoding="UTF-8"?>
<svg width="26px" height="24px" viewBox="0 0 26 24" version="1.1" xmlns="http://www.w3.org/2000/svg" xmlns:xlink="http://www.w3.org/1999/xlink">
    <!-- Generator: Sketch 58 (84663) - https://sketch.com -->
    <title>app_highlight</title>
    <desc>Created with Sketch.</desc>
    <g id="Symbols" stroke="none" stroke-width="1" fill="none" fill-rule="evenodd">
        <g id="app_highlight">
            <g id="Group-13" transform="translate(5.000000, 5.000000)">
                <path d="M12.0014977,3 C12.5529553,3 13,3.44483697 13,3.9955775 L13,13.0044225 C13,13.5542648 12.5525106,14 12.0014977,14 L0.998502329,14 C0.44704472,14 0,13.555163 0,13.0044225 L0,3.9955775 C0,3.44573523 0.447489426,3 0.998502329,3 L12.0014977,3 Z M6.5,4.88196601 L3.5527864,10.7763932 L4.4472136,11.2236068 L5.058,10 L7.94,10 L8.5527864,11.2236068 L9.4472136,10.7763932 L6.5,4.88196601 Z M6.5,7.11803399 L7.44,9 L5.558,9 L6.5,7.11803399 Z" id="Combined-Shape" fill="#FFFFFF"></path>
                <polyline id="Path-7" stroke="#FFFFFF" stroke-linecap="round" stroke-linejoin="round" points="2 0.5 15.5 0.5 15.5 11"></polyline>
                <g id="Group-12" transform="translate(3.000000, 4.000000)"></g>
            </g>
        </g>
    </g>
</svg>