<?xml version="1.0" encoding="UTF-8"?>
<svg width="24px" height="24px" viewBox="0 0 24 24" version="1.1" xmlns="http://www.w3.org/2000/svg" xmlns:xlink="http://www.w3.org/1999/xlink">
    <!-- Generator: Sketch 58 (84663) - https://sketch.com -->
    <title>icon_cpu_light</title>
    <desc>Created with Sketch.</desc>
    <g id="深色主题备份" stroke="none" stroke-width="1" fill="none" fill-rule="evenodd">
        <g id="[7-1]应用监控-舒展模式" transform="translate(-526.000000, -440.000000)">
            <g id="icon_cpu_light" transform="translate(526.000000, 440.000000)">
                <path d="M8,8 L8,15 L15,15 L15,8 L8,8 Z M10,4 L10,7 L11,7 L11,4 L12,4 L12,7 L13,7 L13,4 L14,4 L14,7 L16,7 L16,9 L19,9 L19,10 L16,10 L16,11 L19,11 L19,12 L16,12 L16,13 L19,13 L19,14 L16,14 L16,16 L14,16 L14,19 L13,19 L13,16 L12,16 L12,19 L11,19 L11,16 L10,16 L10,19 L9,19 L9,16 L7,16 L7,14 L4,14 L4,13 L7,13 L7,12 L4,12 L4,11 L7,11 L7,10 L4,10 L4,9 L7,9 L7,7 L9,7 L9,4 L10,4 Z" id="Combined-Shape" fill="#C5CFE0"></path>
                <rect id="矩形" stroke="#979797" fill="#D8D8D8" opacity="0" x="0" y="0" width="24" height="24"></rect>
            </g>
        </g>
    </g>
</svg>