<?xml version="1.0" encoding="UTF-8"?>
<svg width="24px" height="24px" viewBox="0 0 24 24" version="1.1" xmlns="http://www.w3.org/2000/svg" xmlns:xlink="http://www.w3.org/1999/xlink">
    <!-- Generator: Sketch 58 (84663) - https://sketch.com -->
    <title>icon_memory_light</title>
    <desc>Created with Sketch.</desc>
    <g id="Symbols" stroke="none" stroke-width="1" fill="none" fill-rule="evenodd">
        <g id="Sidebar" transform="translate(3.000000, -265.000000)">
            <g transform="translate(-4.000000, 0.000000)" id="mem">
                <g transform="translate(1.000000, 248.000000)">
                    <g id="Group-30">
                        <g id="icon_memory_light" transform="translate(0.000000, 17.000000)">
                            <g id="mem" transform="translate(4.000000, 6.565371)" fill="#536076">
                                <path d="M14.1176471,6 L14.1176471,7 L12.9993529,7 L13,10 L12,10 L11.9993529,7 L10.9993529,7 L11,10 L10,10 L9.99935294,7 L8.99935294,7 L9,10 L8,10 L7.99935294,7 L6.99935294,7 L7,10 L6,10 L5.99935294,7 L4.99935294,7 L5,10 L4,10 L3.99935294,7 L2.99935294,7 L3,10 L2,10 L1.99935294,7 L0.882352941,7 L0.882352941,6 L14.1176471,6 Z" id="Combined-Shape"></path>
                                <path d="M14.5009232,0.0275664555 C14.7763174,0.0275664555 15,0.255744316 15,0.537215971 L15,0.537215971 L15,9.51791694 C15,9.79991367 14.7765557,10.0275665 14.5009232,10.0275665 L14.5009232,10.0275665 L0.499076843,10.0275665 C0.223682597,10.0275665 0,9.7993886 0,9.51791694 L0,9.51791694 L0,0.537215971 C0,0.255219244 0.223444314,0.0275664555 0.499076843,0.0275664555 L0.499076843,0.0275664555 Z M14,1.02756646 L1,1.02756646 L1,9.02756646 L14,9.02756646 L14,1.02756646 Z" id="Combined-Shape"></path>
                            </g>
                            <rect id="矩形" stroke="#979797" fill="#D8D8D8" opacity="0" x="0" y="0" width="24" height="24"></rect>
                        </g>
                    </g>
                </g>
            </g>
        </g>
    </g>
</svg>