<?xml version="1.0" encoding="UTF-8"?>
<svg width="26px" height="24px" viewBox="0 0 26 24" version="1.1" xmlns="http://www.w3.org/2000/svg" xmlns:xlink="http://www.w3.org/1999/xlink">
    <!-- Generator: Sketch 58 (84663) - https://sketch.com -->
    <title>service_highlight</title>
    <desc>Created with Sketch.</desc>
    <g id="Symbols" stroke="none" stroke-width="1" fill="none" fill-rule="evenodd">
        <g id="service_highlight" fill="#FFFFFF">
            <path d="M13.4756045,5 C14.6846133,5 15.4956478,5.94543877 15.6732979,6.87960526 C17.9953438,7.64447922 18.3796133,8.90764288 18.3223511,12.7422131 C18.3169351,13.104897 18.3138634,13.3494413 18.3125214,13.5761194 C19.225037,14.1959441 20,15.5043306 20,16.5 C20,16.7761424 19.7761424,17 19.5,17 C19.0528428,17 18.2402844,17 15.9713712,16.999727 C14.7762357,16.9996272 14.7762357,16.9996272 13.5220493,16.9995433 C10.2991525,16.9993478 8.22560646,16.9994563 7.50037472,17 C7.22408607,17.0002069 7,16.7762887 7,16.5 C7,15.5159318 7.74606535,14.1953668 8.63869765,13.5778272 C8.63736105,13.350669 8.63428745,13.1058079 8.62885784,12.7422131 C8.57159571,8.90764288 8.95586521,7.64447922 11.2779111,6.87960526 C11.4555612,5.94543877 12.2665957,5 13.4756045,5 Z" id="路径-8"></path>
            <path d="M10.5,18.5 C10.5,18.2238576 10.7238576,18 11,18 L16,18 C16.2761424,18 16.5,18.2238576 16.5,18.5 C16.5,18.6922099 15.421354,19 13.5,19 C11.578646,19 10.5,18.6922099 10.5,18.5 Z" id="路径-9"></path>
        </g>
    </g>
</svg>