<?xml version="1.0" encoding="UTF-8"?>
<svg width="12px" height="12px" viewBox="0 0 12 12" version="1.1" xmlns="http://www.w3.org/2000/svg" xmlns:xlink="http://www.w3.org/1999/xlink">
    <title>切换</title>
    <defs>
        <filter id="filter-1">
            <feColorMatrix in="SourceGraphic" type="matrix" values="0 0 0 0 0.774103 0 0 0 0 0.813135 0 0 0 0 0.879671 0 0 0 1.000000 0"></feColorMatrix>
        </filter>
    </defs>
    <g id="浅色主题备份" stroke="none" stroke-width="1" fill="none" fill-rule="evenodd">
        <g id="查看性能参数-处理器-单核" transform="translate(-1379.000000, -155.000000)">
            <g id="切换" transform="translate(1373.000000, 149.000000)" filter="url(#filter-1)">
                <g transform="translate(6.000000, 6.000000)">
                    <path d="M0.571294271,4.52317653 L11.4251384,4.52317653 C11.6580324,4.52317653 11.8674734,4.38759116 11.9558314,4.17260331 C12.0446415,3.96291264 11.9970565,3.72088007 11.8352937,3.55950983 L8.41006048,0.167239304 C8.304196,0.0602739433 8.1593224,0 8.00808645,0 C7.8568505,0 7.7119769,0.0602739433 7.60611243,0.167239304 C7.49810768,0.272084997 7.43724806,0.415564406 7.43724806,0.565344938 C7.43724806,0.715125469 7.49810768,0.858604878 7.60611243,0.963450571 L10.0583176,3.39205699 L0.578930141,3.39205699 C0.265314043,3.39205699 0.00779946346,3.64701745 0.00779946346,3.95761547 C0.00538487264,4.10704147 0.0636962021,4.25117764 0.169676999,4.35756105 C0.275657796,4.46394445 0.420396434,4.52362959 0.571294271,4.52317653 L0.571294271,4.52317653 Z M11.4251384,8.03428198 L0.571294271,8.03428198 C0.338400229,8.03428198 0.128959217,8.16986476 0.0406012905,8.38485261 C0.0117406078,8.4528208 -0.00202423282,8.52614087 0.00024026218,8.59984045 C0.00024026218,8.74298563 0.0564184503,8.89423336 0.169320246,8.99794609 L3.02349945,11.8327607 C3.12936393,11.9397261 3.27423753,12 3.42547348,12 C3.57670943,12 3.72158302,11.9397261 3.8274475,11.8327607 C3.93545225,11.727915 3.99631187,11.5844356 3.99631187,11.4346551 C3.99631187,11.2848745 3.93545225,11.1413951 3.8274475,11.0365494 L1.94629633,9.17350149 L11.4251384,9.17350149 C11.7387545,9.17350149 11.9961924,8.91854103 11.9961924,8.60794301 C11.995647,8.29734499 11.7387545,8.03428198 11.4251384,8.03428198 Z" id="形状" fill="#C5CFE0"></path>
                </g>
            </g>
        </g>
    </g>
</svg>