<?xml version="1.0" encoding="UTF-8"?>
<svg width="20px" height="20px" viewBox="0 0 20 20" version="1.1" xmlns="http://www.w3.org/2000/svg" xmlns:xlink="http://www.w3.org/1999/xlink">
    <title>形状结合</title>
    <g id="插件" stroke="none" stroke-width="1" fill="none" fill-rule="evenodd">
        <g id="插件图标与popup" transform="translate(-1703.000000, -1024.000000)" fill="#FFFFFF">
            <g id="trayicon/onboard" transform="translate(1693.000000, 991.000000)">
                <g id="deepin-system-monitor" transform="translate(10.000000, 33.000000)">
                    <path d="M10,0 C15.5228475,0 20,4.4771525 20,10 C20,15.5228475 15.5228475,20 10,20 C4.4771525,20 0,15.5228475 0,10 C0,4.4771525 4.4771525,0 10,0 Z M10,1.35 C5.22273691,1.35 1.35,5.22273691 1.35,10 C1.35,11.9733131 2.01350696,13.8470713 3.21264617,15.3628296 C3.8945922,16.2248357 4.73522183,16.951244 5.68768517,17.4999818 C5.9987403,17.6791883 6.39617594,17.5723039 6.57538251,17.2612488 C6.75458908,16.9501937 6.6477047,16.552758 6.33664956,16.3735515 C5.52706059,15.9071272 4.81212232,15.2893318 4.23217937,14.5562615 C3.21309722,13.2681023 2.65,11.6779034 2.65,10 C2.65,5.94070709 5.94070709,2.65 10,2.65 C14.0592929,2.65 17.35,5.94070709 17.35,10 C17.35,11.764972 16.7266105,13.4320302 15.6088057,14.7503944 C15.0740164,15.3811371 14.4364377,15.9186114 13.724244,16.3380789 C13.4149231,16.5202625 13.311858,16.9187057 13.4940416,17.2280266 C13.6762253,17.5373474 14.0746684,17.6404125 14.3839893,17.4582289 C15.2218497,16.9647463 15.9715464,16.3327573 16.6003671,15.591112 C17.915488,14.0400287 18.65,12.0758084 18.65,10 C18.65,5.22273691 14.7772631,1.35 10,1.35 Z M8.77294023,6.42142857 C7.85880425,6.42142857 7.40595175,6.90905032 7.00832184,8.25016158 L7.00832184,8.25016158 L6.89499974,8.65836494 L6.76048661,9.20251508 L6.60958571,9.86515079 L6.51700384,10.2557391 L6.42844934,10.6013677 L6.34294391,10.9043105 L6.25972297,11.1660973 L6.17813438,11.3881517 L6.12232024,11.5199955 C5.97487591,11.8461686 5.83734776,11.972152 5.68019599,11.972152 C5.52384127,11.972152 5.36417342,11.8778779 5.20379578,11.6816241 C5.12966286,11.5909078 5.06476783,11.4906288 5.02017982,11.4051069 L5.02017982,11.4051069 L4.98277078,11.3254048 L4.93993969,11.2407532 C4.79334104,11.0014198 4.49083699,10.8966359 4.22258939,11.0062412 C3.92453651,11.1280249 3.7816421,11.4683697 3.90342581,11.7664226 C3.98730986,11.9717201 4.12483561,12.2039153 4.30094966,12.4194257 C4.68019833,12.8835114 5.14569959,13.1381203 5.68019599,13.1381203 C6.62964548,13.1381203 7.08017199,12.6179772 7.49435528,11.1372518 L7.49435528,11.1372518 L7.64277171,10.5655555 L7.89040606,9.49334206 L7.98084142,9.12556083 L8.06777102,8.80147181 L8.15204416,8.51929229 L8.23437727,8.27754186 L8.28913402,8.13602218 C8.45182475,7.73909561 8.60157901,7.58739696 8.77294023,7.58739696 C8.91893754,7.58739696 9.03790184,7.71321157 9.16162311,8.06038799 L9.16162311,8.06038799 L9.22621408,8.26274725 L9.25631896,8.372495 L9.3492963,8.77420019 L9.41132192,9.09569932 L9.47339226,9.4584902 L9.57147313,10.0968638 L9.64103736,10.5285277 L9.71170373,10.9219245 L9.78504636,11.277965 L9.83153857,11.4756623 C10.1325872,12.6874044 10.5647073,13.1381203 11.4533185,13.1381203 C12.2671066,13.1381203 12.6303763,12.7173231 12.8850553,11.602566 L12.8850553,11.602566 L12.9763183,11.1684184 L13.025767,10.9524788 L13.0699762,10.7893569 L13.087,10.738 L13.1474618,10.9368946 L13.2508494,11.3251392 L13.3372287,11.6162868 L13.4002553,11.7933912 C13.7950644,12.823182 14.4923379,13.2623776 15.6414342,13.1345461 C15.9614335,13.0989477 16.1919859,12.8106788 16.1563875,12.4906795 C16.1207891,12.1706802 15.8325202,11.9401278 15.5125209,11.9757262 C14.8968523,12.0442164 14.6556566,11.8922127 14.4525519,11.2771876 L14.4525519,11.2771876 L14.3927091,11.0797069 L14.2629517,10.5976461 L14.214575,10.4385842 C13.9845715,9.72746802 13.6897247,9.4490959 13.1027822,9.4490959 C12.3715411,9.4490959 12.0857698,9.7985226 11.8461357,10.8796399 L11.8461357,10.8796399 L11.7555305,11.3123917 L11.7006743,11.5411212 L11.6712672,11.6461069 C11.594967,11.9021969 11.5341404,11.972152 11.4533185,11.972152 C11.295065,11.972152 11.1659875,11.8214697 11.0328374,11.4048316 L11.0328374,11.4048316 L10.9689797,11.183574 L10.9072347,10.9268841 L10.8457384,10.6288263 L10.7840053,10.2879921 L10.7214395,9.90284877 L10.6548349,9.46300786 L10.5852214,9.03102118 L10.514555,8.63762436 L10.4412124,8.28158388 L10.3947202,8.08388663 C10.0936716,6.87214456 9.66155145,6.42142857 8.77294023,6.42142857 Z" id="形状结合"></path>
                </g>
            </g>
        </g>
    </g>
</svg>