<?xml version="1.0" encoding="UTF-8"?>
<svg width="30px" height="30px" viewBox="0 0 30 30" version="1.1" xmlns="http://www.w3.org/2000/svg" xmlns:xlink="http://www.w3.org/1999/xlink">
    <title>deepin-system-monitor 2</title>
    <defs>
        <radialGradient cx="38.256%" cy="21.126%" fx="38.256%" fy="21.126%" r="100.21%" id="radialGradient-1">
            <stop stop-color="#665AFF" offset="0%"></stop>
            <stop stop-color="#4300D7" offset="100%"></stop>
        </radialGradient>
        <radialGradient cx="50%" cy="52.28%" fx="50%" fy="52.28%" r="54.424%" id="radialGradient-2">
            <stop stop-color="#00D8FF" offset="0%"></stop>
            <stop stop-color="#3D00B5" offset="100%"></stop>
        </radialGradient>
    </defs>
    <g id="页面-1" stroke="none" stroke-width="1" fill="none" fill-rule="evenodd">
        <g id="deepin-system-monitor-2">
            <circle id="椭圆形" fill="url(#radialGradient-1)" fill-rule="nonzero" cx="15" cy="15" r="15"></circle>
            <circle id="椭圆形" fill="url(#radialGradient-2)" fill-rule="nonzero" cx="15" cy="15" r="11.7857143"></circle>
            <polygon id="路径" fill="#FFFFFF" fill-rule="nonzero" opacity="0.5" points="12.8571429 26.7857143 17.1428571 26.7857143 17.1428571 27.8571429 12.8571429 27.8571429"></polygon>
            <polygon id="路径" fill-opacity="0.2" fill="#FFFFFF" fill-rule="nonzero" points="2.67857143 15 27.3214286 15 27.3214286 13.9285714 2.67857143 13.9285714"></polygon>
            <polygon id="路径" fill-opacity="0.2" fill="#FFFFFF" fill-rule="nonzero" points="5.89285714 7.5 24.1071429 7.5 24.1071429 6.42857143 5.89285714 6.42857143"></polygon>
            <polygon id="路径" fill-opacity="0.2" fill="#FFFFFF" fill-rule="nonzero" points="19.2857143 26.7857143 19.2857143 3.57107143 18.2142857 3.57107143 18.2142857 26.7857143"></polygon>
            <polygon id="路径" fill-opacity="0.2" fill="#FFFFFF" fill-rule="nonzero" points="26.7857143 19.8214286 26.7857143 7.5 25.7142857 7.5 25.7142857 19.8214286"></polygon>
            <polygon id="路径" fill-opacity="0.2" fill="#FFFFFF" fill-rule="nonzero" points="11.7857143 26.7857143 11.7857143 3.21428571 10.7142857 3.21428571 10.7142857 26.7857143"></polygon>
            <polygon id="路径" fill-opacity="0.2" fill="#FFFFFF" fill-rule="nonzero" points="4.28571429 19.8214286 4.28571429 10.1785714 3.21428571 10.1785714 3.21428571 19.8214286"></polygon>
            <polygon id="路径" fill-opacity="0.2" fill="#FFFFFF" fill-rule="nonzero" points="4.82142857 22.5 25.1785714 22.5 25.1785714 21.4285714 4.82142857 21.4285714"></polygon>
            <path d="M20.4087329,26.0739238 C24.5023389,24.0707653 27.3214286,19.8645995 27.3214286,15 C27.3214286,8.19506291 21.8049371,2.67857143 15,2.67857143 C8.19506291,2.67857143 2.67857143,8.19506291 2.67857143,15 C2.67857143,19.8753097 5.51008832,24.0892834 9.61832402,26.0871227" id="路径" stroke="#FFFFFF" opacity="0.504" stroke-linecap="round"></path>
            <path d="M15,2.67857143 C8.19506291,2.67857143 2.67857143,8.19506291 2.67857143,15 C2.67857143,19.8753097 5.51008832,24.0892834 9.61832402,26.0871227" id="路径" stroke="#FFFFFF" stroke-linecap="round"></path>
            <path d="M5.35714286,16.9737711 C5.35714286,16.9737711 6.07142857,18.7219108 7.5,18.7219108 C10.7142857,18.7219108 9.64285714,9.10714286 12.8571429,9.10714286 C16.0714286,9.10714286 14.2857142,18.7219108 17.5,18.7219108 C19.6428571,18.7219108 18.5714285,14.3515618 20.3571429,14.3515618 C22.1428572,14.3515618 20.7142857,19.1589457 24.6428571,18.7219108" id="路径" stroke="#FFFFFF" stroke-linecap="round" stroke-linejoin="round"></path>
        </g>
    </g>
</svg>