<?xml version="1.0" encoding="UTF-8"?>
<svg width="24px" height="24px" viewBox="0 0 24 24" version="1.1" xmlns="http://www.w3.org/2000/svg">
    <title>icon_gpu_light</title>
    <g id="icon_gpu_light" stroke="none" stroke-width="1" fill="none" fill-rule="evenodd">
        <path d="M4,7 L4,17 L17,17 L17,7 L4,7 Z M6,9 L15,9 L15,15 L6,15 L6,9 Z M19,9 L20,9 L20,11 L19,11 L19,9 Z M19,13 L20,13 L20,15 L19,15 L19,13 Z M8,5 L8,7 L10,7 L10,5 L8,5 Z M12,5 L12,7 L14,7 L14,5 L12,5 Z M8,17 L8,19 L10,19 L10,17 L8,17 Z M12,17 L12,19 L14,19 L14,17 L12,17 Z" id="Combined-Shape" fill="#536076" fill-rule="nonzero"></path>
        <rect id="bounds" opacity="0" x="0" y="0" width="24" height="24"></rect>
    </g>
</svg>
