<?xml version="1.0" encoding="UTF-8"?>
<svg width="26px" height="24px" viewBox="0 0 26 24" version="1.1" xmlns="http://www.w3.org/2000/svg" xmlns:xlink="http://www.w3.org/1999/xlink">
    <!-- Generator: Sketch 58 (84663) - https://sketch.com -->
    <title>service_normal</title>
    <desc>Created with Sketch.</desc>
    <g id="Symbols" stroke="none" stroke-width="1" fill="none" fill-rule="evenodd" stroke-linecap="round" stroke-linejoin="round">
        <g id="service_normal" stroke="#536076">
            <path d="M11.2411661,7.25980341 C11.2411661,6.81985256 11.6747757,5.5 12.9756045,5.5 C14.2764333,5.5 14.7100429,6.81985256 14.7100429,7.25980341 C17.7453101,8.13970511 17.3117005,10.3394594 17.3117005,13.8590662 C18.1789197,14.299017 19,15.6041359 19,16.5 C17.2409271,16.5 8.63950851,16.4987713 7,16.5 C7,15.6349828 7.77228931,14.299017 8.63950851,13.8590662 C8.63950851,10.3394594 8.20589891,8.13970511 11.2411661,7.25980341 Z" id="路径-8"></path>
            <path d="M10.5,16.5 L15.5,16.5 C15.5,17.8333333 14.6666667,18.5 13,18.5 C11.3333333,18.5 10.5,17.8333333 10.5,16.5 Z" id="路径-9"></path>
        </g>
    </g>
</svg>