<svg xmlns="http://www.w3.org/2000/svg" xmlns:xlink="http://www.w3.org/1999/xlink" width="96" height="96" viewBox="0 0 96 96">
  <defs>
    <filter id="deepin-system-monitor-a" width="127.3%" height="127.3%" x="-13.6%" y="-13.6%" filterUnits="objectBoundingBox">
      <feOffset dy="2" in="SourceAlpha" result="shadowOffsetOuter1"/>
      <feGaussianBlur in="shadowOffsetOuter1" result="shadowBlurOuter1" stdDeviation="2"/>
      <feComposite in="shadowBlurOuter1" in2="SourceAlpha" operator="out" result="shadowBlurOuter1"/>
      <feColorMatrix in="shadowBlurOuter1" result="shadowMatrixOuter1" values="0 0 0 0 0   0 0 0 0 0   0 0 0 0 0  0 0 0 0.2 0"/>
      <feMerge>
        <feMergeNode in="shadowMatrixOuter1"/>
        <feMergeNode in="SourceGraphic"/>
      </feMerge>
    </filter>
    <radialGradient id="deepin-system-monitor-b" cx="38.256%" cy="21.126%" r="100.21%" fx="38.256%" fy="21.126%">
      <stop offset="0%" stop-color="#665AFF"/>
      <stop offset="100%" stop-color="#4300D7"/>
    </radialGradient>
    <radialGradient id="deepin-system-monitor-d" cx="50%" cy="52.28%" r="54.424%" fx="50%" fy="52.28%">
      <stop offset="0%" stop-color="#00D8FF"/>
      <stop offset="100%" stop-color="#3D00B5"/>
    </radialGradient>
    <circle id="deepin-system-monitor-c" cx="33.75" cy="33.75" r="33.375"/>
    <path id="deepin-system-monitor-g" d="M15.9811326,49.2007031 C16.2771159,49.8329135 16.836501,50.7290344 17.6787973,51.6285927 C19.1240819,53.1721324 20.9003236,54.1206306 23,54.1206306 C25.5784483,54.1206306 27.4658075,52.5989989 28.8768924,49.8361381 C29.8672639,47.8970211 30.442384,46.0202422 31.59002,41.52617 C33.6890191,33.3066189 35.0586111,30.625 38,30.625 C40.8766409,30.625 41.9994701,33.2631579 43.390957,41.4366237 C44.1572482,45.9377477 44.5730496,47.8165006 45.4023556,49.7650072 C46.5933393,52.5632986 48.3924159,54.1206306 51,54.1206306 C54.2519063,54.1206306 55.4585027,52.2348383 56.4703886,47.9121298 C56.4986499,47.7913996 56.525843,47.6742997 56.5802902,47.439477 C57.3060636,44.3129676 57.7999802,43.4407985 59,43.4407985 C59.9077166,43.4407985 60.3346994,44.0533822 61.0171973,46.3031485 C61.0526442,46.4199947 61.2233195,46.9890385 61.2724352,47.1505215 C61.3767353,47.493441 61.4654991,47.7745504 61.5567637,48.0471699 C63.0535184,52.5181752 65.6449415,54.6458398 71.1087144,54.1153654 C71.7271269,54.0553242 72.1797762,53.5053287 72.1197349,52.8869162 C72.0596936,52.2685037 71.5096981,51.8158544 70.8912856,51.8758957 C66.5887499,52.2936262 64.881948,50.892272 63.6903802,47.3329008 C63.6066659,47.0828348 63.523801,46.8204069 63.4250679,46.4957907 C63.3775687,46.3396223 63.2072066,45.7716227 63.1703027,45.649974 C62.21627,42.505128 61.3001566,41.1907985 59,41.1907985 C56.2521891,41.1907985 55.3520098,42.7803557 54.3885679,46.9307008 C54.3340186,47.1659603 54.3073434,47.2808298 54.2796114,47.3992993 C53.4886127,50.7783927 52.7897604,51.8706306 51,51.8706306 C48.1233591,51.8706306 47.0005299,49.2324727 45.609043,41.0590069 C44.8427518,36.5578828 44.4269504,34.67913 43.5976444,32.7306234 C42.4066607,29.932332 40.6075841,28.375 38,28.375 C35.4215517,28.375 33.5341925,29.8966317 32.1231076,32.6594925 C31.1327361,34.5986094 30.557616,36.4753884 29.40998,40.9694605 C27.3109809,49.1890117 25.9413889,51.8706306 23,51.8706306 C21.5996764,51.8706306 20.3759181,51.2171539 19.3212027,50.0907356 C18.9371397,49.6805627 18.6052885,49.2375484 18.3293284,48.7954673 C18.1671571,48.5356729 18.0631811,48.3413448 18.0188674,48.2466924 C17.7554247,47.6839874 17.0856996,47.4413875 16.5229946,47.7048303 C15.9602897,47.9682731 15.7176898,48.6379982 15.9811326,49.2007031 Z"/>
    <filter id="deepin-system-monitor-f" width="153.3%" height="216.2%" x="-26.7%" y="-58.1%" filterUnits="objectBoundingBox">
      <feMorphology in="SourceAlpha" operator="dilate" radius=".5" result="shadowSpreadOuter1"/>
      <feOffset in="shadowSpreadOuter1" result="shadowOffsetOuter1"/>
      <feGaussianBlur in="shadowOffsetOuter1" result="shadowBlurOuter1" stdDeviation="4.5"/>
      <feColorMatrix in="shadowBlurOuter1" values="0 0 0 0 0.243137255   0 0 0 0 0.423529412   0 0 0 0 1  0 0 0 1 0"/>
    </filter>
  </defs>
  <g fill="none" fill-rule="evenodd" filter="url(#deepin-system-monitor-a)" transform="translate(4 4)">
    <circle cx="44" cy="44" r="44" fill="url(#deepin-system-monitor-b)"/>
    <g transform="translate(10.25 10.625)">
      <mask id="deepin-system-monitor-e" fill="#fff">
        <use xlink:href="#deepin-system-monitor-c"/>
      </mask>
      <use fill="url(#deepin-system-monitor-d)" xlink:href="#deepin-system-monitor-c"/>
      <g stroke="#FFF" mask="url(#deepin-system-monitor-e)">
        <g transform="translate(.75 3.375)">
          <path d="M16.875,0.5 L49.125,0.5" opacity=".2"/>
          <path d="M10.5 5.5L56.625 5.5M6 10.5L61.5 10.5" opacity=".1"/>
          <path d="M3.75,15.5 L63,15.5" opacity=".2"/>
          <path d="M.375 19.5L66.375 19.5M.375 24.5L66.375 24.5" opacity=".1"/>
          <path d="M0,29.5 L66.75,29.5" opacity=".2"/>
          <path d="M.375 34.5L66.375 34.5M1.125 39.5L65.25 39.5" opacity=".1"/>
          <path d="M3.375,44.5 L63.375,44.5" opacity=".2"/>
          <path d="M6 49.5L61.125 49.5M9.75 54.5L56.625 54.5" opacity=".1"/>
        </g>
      </g>
      <g mask="url(#deepin-system-monitor-e)">
        <g transform="translate(2.75 -.125)">
          <path stroke="#FFF" d="M60.5 51.375L60.5 15.375M.5 51.375L.5 15.375" opacity=".2"/>
          <path stroke="#FFF" d="M5.5 55.125L5.5 9.75M10.5 63.375L10.5 5.25" opacity=".1"/>
          <path stroke="#FFF" d="M15.5,63.75 L15.5,4.125" opacity=".2"/>
          <path stroke="#FFF" d="M20.5 65.625L20.5 1.875M25.5 65.25L25.5.375" opacity=".1"/>
          <path stroke="#FFF" d="M30.5,65.625 L30.5,0.375" opacity=".2"/>
          <path stroke="#FFF" d="M35.5 65.25L35.5.375M40.5 65.625L40.5 1.875" opacity=".1"/>
          <path stroke="#FFF" d="M45.5,64.5 L45.5,4.125" opacity=".2"/>
          <path stroke="#FFF" d="M50.5 63.375L50.5 5.25M55.5 56.375L55.5 11" opacity=".1"/>
        </g>
      </g>
    </g>
    <path stroke="#FFF" stroke-linecap="round" stroke-width="2" d="M59.1444522,75.3819867 C70.6065487,69.7731429 78.5,57.9958786 78.5,44.375 C78.5,25.3211761 63.0538239,9.875 44,9.875 C24.9461761,9.875 9.5,25.3211761 9.5,44.375 C9.5,58.0258674 17.4282473,69.8249935 28.9313073,75.4189435" opacity=".497"/>
    <path stroke="#FFF" stroke-linecap="round" stroke-linejoin="round" stroke-width="2" d="M44,9.875 C24.9461761,9.875 9.5,25.251905 9.5,44.2202786 C9.5,57.8099263 17.4282473,69.556137 28.9313073,75.125"/>
    <g fill-rule="nonzero">
      <use fill="#000" filter="url(#deepin-system-monitor-f)" xlink:href="#deepin-system-monitor-g"/>
      <use fill="#FFF" xlink:href="#deepin-system-monitor-g"/>
    </g>
    <rect width="20.25" height="9" x="33.875" y="72.125" fill="#0A8BFF" rx="4.5"/>
    <path fill="#FFF" d="M39.4175,79.76 C40.1375,79.76 40.73,79.475 41.1875,78.9425 L40.6025,78.2525 C40.3025,78.575 39.9275,78.8 39.455,78.8 C38.5775,78.8 38.0075,78.0725 38.0075,76.865 C38.0075,75.6725 38.6375,74.9525 39.4775,74.9525 C39.8975,74.9525 40.22,75.1475 40.4975,75.4175 L41.0825,74.7125 C40.7225,74.3375 40.16,74 39.455,74 C38.0525,74 36.875,75.0725 36.875,76.9025 C36.875,78.755 38.015,79.76 39.4175,79.76 Z M42.08,79.655 L42.08,74.105 L43.9025,74.105 C45.1325,74.105 46.0775,74.5325 46.0775,75.845 C46.0775,77.1125 45.125,77.6825 43.9325,77.6825 L43.19,77.6825 L43.19,79.655 L42.08,79.655 Z M43.19,76.805 L43.8575,76.805 C44.6225,76.805 44.99,76.4825 44.99,75.845 C44.99,75.2 44.585,74.9825 43.82,74.9825 L43.19,74.9825 L43.19,76.805 Z M49.2125,79.76 C50.57,79.76 51.3575,79.0025 51.3575,77.1575 L51.3575,74.105 L50.2925,74.105 L50.2925,77.255 C50.2925,78.41 49.8725,78.8 49.2125,78.8 C48.56,78.8 48.1625,78.41 48.1625,77.255 L48.1625,74.105 L47.0525,74.105 L47.0525,77.1575 C47.0525,79.0025 47.8625,79.76 49.2125,79.76 Z"/>
  </g>
</svg>
