<?xml version="1.0" encoding="UTF-8"?>
<svg width="25px" height="24px" viewBox="0 0 25 24" version="1.1" xmlns="http://www.w3.org/2000/svg" xmlns:xlink="http://www.w3.org/1999/xlink">
    <title>apps/128/deepin-system-monitor</title>
    <defs>
        <filter x="-9.9%" y="-5.2%" width="119.8%" height="120.9%" filterUnits="objectBoundingBox" id="filter-1">
            <feOffset dx="0" dy="1" in="SourceAlpha" result="shadowOffsetOuter1"></feOffset>
            <feGaussianBlur stdDeviation="0.5" in="shadowOffsetOuter1" result="shadowBlurOuter1"></feGaussianBlur>
            <feColorMatrix values="0 0 0 0 0   0 0 0 0 0   0 0 0 0 0  0 0 0 0.20036604 0" type="matrix" in="shadowBlurOuter1" result="shadowMatrixOuter1"></feColorMatrix>
            <feMerge>
                <feMergeNode in="shadowMatrixOuter1"></feMergeNode>
                <feMergeNode in="SourceGraphic"></feMergeNode>
            </feMerge>
        </filter>
        <linearGradient x1="50%" y1="2.37536127%" x2="50%" y2="97.225097%" id="linearGradient-2">
            <stop stop-color="#2C71FF" offset="0%"></stop>
            <stop stop-color="#182FDC" offset="100%"></stop>
        </linearGradient>
        <path d="M3.84702942,0 L16.4029706,2.26708535e-16 C17.7406665,-1.31724187e-16 18.2257474,0.139281921 18.714789,0.400824253 C19.2038307,0.662366585 19.5876334,1.04616933 19.8491757,1.53521097 C20.1107181,2.02425261 20.25,2.50933348 20.25,3.84702942 L20.25,15.2779706 C20.25,16.6156665 20.1107181,17.1007474 19.8491757,17.589789 C19.5876334,18.0788307 19.2038307,18.4626334 18.714789,18.7241757 C18.2257474,18.9857181 17.7406665,19.125 16.4029706,19.125 L3.84702942,19.125 C2.50933348,19.125 2.02425261,18.9857181 1.53521097,18.7241757 C1.04616933,18.4626334 0.662366585,18.0788307 0.400824253,17.589789 C0.139281921,17.1007474 1.33226763e-15,16.6156665 1.33226763e-15,15.2779706 L0,3.84702942 C0,2.50933348 0.139281921,2.02425261 0.400824253,1.53521097 C0.662366585,1.04616933 1.04616933,0.662366585 1.53521097,0.400824253 C2.02425261,0.139281921 2.50933348,0 3.84702942,0 Z" id="path-3"></path>
        <filter x="-7.4%" y="-7.8%" width="114.8%" height="115.7%" filterUnits="objectBoundingBox" id="filter-4">
            <feGaussianBlur stdDeviation="1" in="SourceAlpha" result="shadowBlurInner1"></feGaussianBlur>
            <feOffset dx="0" dy="-1" in="shadowBlurInner1" result="shadowOffsetInner1"></feOffset>
            <feComposite in="shadowOffsetInner1" in2="SourceAlpha" operator="arithmetic" k2="-1" k3="1" result="shadowInnerInner1"></feComposite>
            <feColorMatrix values="0 0 0 0 0   0 0 0 0 0.108032992   0 0 0 0 0.378311821  0 0 0 0.2 0" type="matrix" in="shadowInnerInner1"></feColorMatrix>
        </filter>
        <linearGradient x1="40.7675756%" y1="0%" x2="40.7675756%" y2="100%" id="linearGradient-5">
            <stop stop-color="#FFFFFF" stop-opacity="0.2" offset="0%"></stop>
            <stop stop-color="#000000" stop-opacity="0.2" offset="100%"></stop>
        </linearGradient>
    </defs>
    <g id="apps/128/deepin-system-monitor" stroke="none" fill="none" transform="translate(0.25, 0)">
        <g id="app/deepin-system-monitor/48px" filter="url(#filter-1)" stroke-width="1" fill-rule="evenodd" transform="translate(1.875, 2.4375)">
            <g id="Rectangle-245">
                <use fill="url(#linearGradient-2)" fill-rule="evenodd" xlink:href="#path-3"></use>
                <use fill="black" fill-opacity="1" filter="url(#filter-4)" xlink:href="#path-3"></use>
            </g>
            <path d="M16.4029706,0 C17.7406665,0 18.2257474,0.139281921 18.714789,0.400824253 C19.2038307,0.662366585 19.5876334,1.04616933 19.8491757,1.53521097 C20.1107181,2.02425261 20.25,2.50933348 20.25,3.84702942 L20.25,15.2779706 C20.25,16.6156665 20.1107181,17.1007474 19.8491757,17.589789 C19.5876334,18.0788307 19.2038307,18.4626334 18.714789,18.7241757 C18.2257474,18.9857181 17.7406665,19.125 16.4029706,19.125 L3.84702942,19.125 C2.50933348,19.125 2.02425261,18.9857181 1.53521097,18.7241757 C1.04616933,18.4626334 0.662366585,18.0788307 0.400824253,17.589789 C0.139281921,17.1007474 0,16.6156665 0,15.2779706 L0,3.84702942 C0,2.50933348 0.139281921,2.02425261 0.400824253,1.53521097 C0.662366585,1.04616933 1.04616933,0.662366585 1.53521097,0.400824253 C2.02425261,0.139281921 2.50933348,0 3.84702942,0 L16.4029706,0 Z M3.84702942,0.1875 C2.65572942,0.1875 2.14853874,0.285443038 1.62363575,0.566164228 C1.16726945,0.810231597 0.810231597,1.16726945 0.566164228,1.62363575 C0.285443038,2.14853874 0.1875,2.65572942 0.1875,3.84702942 L0.1875,15.2779706 C0.1875,16.4692706 0.285443038,16.9764613 0.566164228,17.5013642 C0.810231597,17.9577305 1.16726945,18.3147684 1.62363575,18.5588358 C2.14853874,18.839557 2.65572942,18.9375 3.84702942,18.9375 L16.4029706,18.9375 C17.5942706,18.9375 18.1014613,18.839557 18.6263642,18.5588358 C19.0827305,18.3147684 19.4397684,17.9577305 19.6838358,17.5013642 C19.964557,16.9764613 20.0625,16.4692706 20.0625,15.2779706 L20.0625,3.84702942 C20.0625,2.65572942 19.964557,2.14853874 19.6838358,1.62363575 C19.4397684,1.16726945 19.0827305,0.810231597 18.6263642,0.566164228 C18.1014613,0.285443038 17.5942706,0.1875 16.4029706,0.1875 L3.84702942,0.1875 Z" id="Rectangle-245" fill="url(#linearGradient-5)" fill-rule="nonzero"></path>
            <path d="M2.25,17.4375 L2.25,1.6875 L2.625,1.6875 L2.625,17.4375 L2.25,17.4375 Z M3.5625,17.4375 L3.5625,1.6875 L3.9375,1.6875 L3.9375,17.4375 L3.5625,17.4375 Z M4.875,17.4375 L4.875,1.6875 L5.25,1.6875 L5.25,17.4375 L4.875,17.4375 Z M6.375,17.4375 L6.375,1.6875 L6.75,1.6875 L6.75,17.4375 L6.375,17.4375 Z M7.875,17.4375 L7.875,1.6875 L8.25,1.6875 L8.25,17.4375 L7.875,17.4375 Z M9.1875,17.4375 L9.1875,1.6875 L9.5625,1.6875 L9.5625,17.4375 L9.1875,17.4375 Z M10.6875,17.4375 L10.6875,1.6875 L11.0625,1.6875 L11.0625,17.4375 L10.6875,17.4375 Z M12,17.4375 L12,1.6875 L12.375,1.6875 L12.375,17.4375 L12,17.4375 Z M13.5,17.4375 L13.5,1.6875 L13.875,1.6875 L13.875,17.4375 L13.5,17.4375 Z M14.8125,17.4375 L14.8125,1.6875 L15.1875,1.6875 L15.1875,17.4375 L14.8125,17.4375 Z M16.3125,17.4375 L16.3125,1.6875 L16.6875,1.6875 L16.6875,17.4375 L16.3125,17.4375 Z M17.625,17.4375 L17.625,1.6875 L18,1.6875 L18,17.4375 L17.625,17.4375 Z" id="形状" fill="#FFFFFF" opacity="0.100000001"></path>
            <path d="M2.25,17.4375 L2.25,1.6875 L2.625,1.6875 L2.625,17.4375 L2.25,17.4375 Z M3.5625,17.4375 L3.5625,1.6875 L3.9375,1.6875 L3.9375,17.4375 L3.5625,17.4375 Z M4.875,17.4375 L4.875,1.6875 L5.25,1.6875 L5.25,17.4375 L4.875,17.4375 Z M6.375,17.4375 L6.375,1.6875 L6.75,1.6875 L6.75,17.4375 L6.375,17.4375 Z M7.6875,17.4375 L7.6875,1.6875 L8.0625,1.6875 L8.0625,17.4375 L7.6875,17.4375 Z M9.1875,17.4375 L9.1875,1.6875 L9.5625,1.6875 L9.5625,17.4375 L9.1875,17.4375 Z M10.5,17.4375 L10.5,1.6875 L10.875,1.6875 L10.875,17.4375 L10.5,17.4375 Z M12,17.4375 L12,1.6875 L12.375,1.6875 L12.375,17.4375 L12,17.4375 Z M13.3125,17.4375 L13.3125,1.6875 L13.6875,1.6875 L13.6875,17.4375 L13.3125,17.4375 Z M14.8125,17.4375 L14.8125,1.6875 L15.1875,1.6875 L15.1875,17.4375 L14.8125,17.4375 Z M16.125,17.4375 L16.125,1.6875 L16.5,1.6875 L16.5,17.4375 L16.125,17.4375 Z M17.625,17.4375 L17.625,1.6875 L18,1.6875 L18,17.4375 L17.625,17.4375 Z" id="形状" fill="#FFFFFF" opacity="0.100000001" transform="translate(10.125, 9.5625) rotate(-90) translate(-10.125, -9.5625)"></path>
            <polyline id="Path-5" stroke="#FFFFFF" stroke-width="1.3125" stroke-linecap="round" stroke-linejoin="round" fill-rule="nonzero" points="3.5625 11.346025 6 11.346025 8.0625 8.625 10.125 13.875 12.375 5.625 14.25 11.1586445 16.6875 11.1586445"></polyline>
        </g>
        <g id="Guide/128"></g>
    </g>
</svg>