<?xml version="1.0" encoding="utf-8"?>
<!-- Generator: Adobe Illustrator 16.0.0, SVG Export Plug-In . SVG Version: 6.00 Build 0)  -->
<!DOCTYPE svg PUBLIC "-//W3C//DTD SVG 1.1//EN" "http://www.w3.org/Graphics/SVG/1.1/DTD/svg11.dtd">
<svg version="1.1" id="图层_1" xmlns="http://www.w3.org/2000/svg" xmlns:xlink="http://www.w3.org/1999/xlink" x="0px" y="0px"
	 width="24px" height="24px" viewBox="0 0 24 24" enable-background="new 0 0 24 24" xml:space="preserve">
<title>next</title>
<desc>Created with Sketch.</desc>
<g id="Page-1">
	<polygon id="rect34470" fill="none" points="0,0 0,24 0,24 24,24 24,24 24,0 24,0 0,0 	"/>
	<path id="polyline34476" fill="#595959" d="M18.999,8.474c-0.011-0.203-0.144-0.379-0.337-0.446
		c-0.191-0.066-0.405-0.009-0.539,0.144l-6.377,7.087L5.367,8.172C5.249,8.036,5.066,7.974,4.889,8.01
		c-0.176,0.036-0.32,0.165-0.375,0.337C4.459,8.52,4.5,8.708,4.623,8.84l6.75,7.5c0.096,0.105,0.23,0.166,0.372,0.166
		c0.142,0,0.277-0.061,0.372-0.166l6.75-7.5C18.959,8.741,19.006,8.609,18.999,8.474L18.999,8.474z"/>
</g>
</svg>
