<?xml version="1.0" encoding="UTF-8"?>
<svg width="24px" height="24px" viewBox="0 0 24 24" version="1.1" xmlns="http://www.w3.org/2000/svg" xmlns:xlink="http://www.w3.org/1999/xlink">
    <title>status-system-monitor-dark</title>
    <g id="status-system-monitor-dark" stroke="none" fill="none" fill-rule="nonzero">
        <path d="M12,1.01203189 C18.0748404,1.01203189 22.9994716,5.93666308 22.9994716,12.0115035 C22.9994716,16.4567977 20.3379253,20.4124139 16.3202519,22.1299318 C16.0155549,22.2601869 15.6629566,22.1187739 15.5327015,21.8140769 C15.4024464,21.5093799 15.5438594,21.1567816 15.8485564,21.0265265 C19.4282646,19.4962346 21.7994716,15.9721236 21.7994716,12.0115035 C21.7994716,6.59940478 17.4120987,2.21203189 12,2.21203189 C6.58790127,2.21203189 2.20052839,6.59940478 2.20052839,12.0115035 C2.20052839,16.0016146 4.6072507,19.5468899 8.22679995,21.0583668 C8.53258072,21.1860569 8.67695174,21.5374545 8.54926165,21.8432353 C8.42157156,22.149016 8.070174,22.2933871 7.76439322,22.165697 C3.70191183,20.4692573 1.00052839,16.4899249 1.00052839,12.0115035 C1.00052839,5.93666308 5.92515957,1.01203189 12,1.01203189 Z M9.75110359,6.98796484 C11.3786965,6.98796484 11.7935655,7.94401871 12.1867295,10.65157 L12.3159778,11.5482809 C12.4192766,12.222371 12.4984879,12.574534 12.6194634,12.8922728 C12.7479609,13.229768 12.8215855,13.2985389 12.9156087,13.2985389 C12.9736451,13.2985389 13.0676677,13.1647586 13.2980034,12.5140229 L13.3612814,12.3322857 C13.8902241,10.7973399 14.3326667,10.1524699 15.5526962,10.1524699 C16.6253534,10.1524699 17.0380922,10.7043997 17.3761071,11.8717538 L17.5180007,12.3886878 C17.7517212,13.2136332 17.9151552,13.3761666 18.6252656,13.3032468 C19.1197218,13.2524722 19.5617187,13.6121471 19.6124933,14.1066032 C19.663268,14.6010593 19.3035931,15.0430562 18.809137,15.0938309 C17.1297274,15.266286 16.2987153,14.5135576 15.8414153,13.0641352 L15.7208642,12.6412853 L15.6908318,12.5291409 C15.6180032,12.2586299 15.5670339,12.0980126 15.5221833,11.9978503 L15.505346,11.9649648 L15.4895779,11.9758573 C15.415994,12.0315069 15.3242329,12.1997545 15.1700426,12.6177244 L15.0513074,12.9528695 C14.5263087,14.4766472 14.1072208,15.0985389 12.9156087,15.0985389 C11.2880157,15.0985389 10.8731467,14.142485 10.4799828,11.4349338 L10.3231098,10.3621457 C10.2417305,9.85656336 10.1724685,9.54898953 10.0792562,9.28195641 L10.0472489,9.19423088 C9.91875139,8.85673571 9.84512676,8.78796484 9.75110359,8.78796484 C9.66752744,8.78796484 9.60006866,8.84230232 9.49586174,9.09141096 L9.45495832,9.19423088 C9.32298509,9.54085503 9.24071467,9.92844681 9.12265363,10.7302632 L8.98406854,11.6915138 C8.60103278,14.203171 8.16168848,15.0985389 6.58659852,15.0985389 C5.50990658,15.0985389 4.67745292,14.4948816 4.18660288,13.4270557 C3.97900242,12.9754286 4.17682505,12.4410191 4.6284521,12.2334187 C5.08007915,12.0258182 5.61448863,12.2236408 5.82208909,12.6752679 C6.0344624,13.1372781 6.25684377,13.2985389 6.58659852,13.2985389 C6.68062169,13.2985389 6.75424632,13.229768 6.8827438,12.8922728 C7.00371926,12.574534 7.08293055,12.222371 7.18622939,11.5482809 L7.35363357,10.3949899 C7.73666933,7.88333267 8.17601364,6.98796484 9.75110359,6.98796484 Z" id="形状" fill="#000000"></path>
    </g>
</svg>