<?xml version="1.0" encoding="UTF-8"?>
<svg width="26px" height="24px" viewBox="0 0 26 24" version="1.1" xmlns="http://www.w3.org/2000/svg" xmlns:xlink="http://www.w3.org/1999/xlink">
    <!-- Generator: Sketch 58 (84663) - https://sketch.com -->
    <title>me_highlight</title>
    <desc>Created with Sketch.</desc>
    <g id="Symbols" stroke="none" stroke-width="1" fill="none" fill-rule="evenodd">
        <g id="me_highlight" fill="#FFFFFF">
            <path d="M5,19 C5,18.9124996 5.00508173,18.7970493 5.01524535,18.6536458 C5.02540898,18.5102423 5.08130806,18.2793418 5.18294425,17.9609375 C5.28458047,17.6425331 5.42686895,17.3958343 5.60981418,17.2208333 C5.78767756,17.0506941 6.14085812,16.8635421 6.66936641,16.6593755 C7.19787372,16.4552069 7.7949784,16.2401053 8.46069644,16.0140632 C9.12641253,15.7880192 9.61425997,15.5996539 9.92425047,15.4489579 C10.3155482,15.2593736 10.619183,14.9822931 10.8351587,14.6177088 C11.0511363,14.2531227 11.1591232,13.8739597 11.1591232,13.4802088 C11.1591232,13.2128461 10.9914253,12.8968773 10.6560275,12.5322912 C10.3155443,12.1579835 10.0398615,11.6487885 9.8289653,11.0046877 C9.61807106,10.3605869 9.51262492,9.61806053 9.51262492,8.77708427 C9.51262492,8.14513547 9.60663778,7.582468 9.79466349,7.0890632 C9.98269116,6.59565653 10.2393185,6.200696 10.5645534,5.90416667 C10.8897902,5.60763733 11.2594859,5.38281413 11.6736542,5.22968773 C12.0878224,5.07656133 12.5312032,5 13.0038101,5 C13.476419,5 13.9172591,5.07656133 14.3263458,5.22968773 C14.7354307,5.38281413 15.1038579,5.60763733 15.4316335,5.90416667 C15.7594111,6.200696 16.0173088,6.59565653 16.2053365,7.0890632 C16.3933622,7.582468 16.4873751,8.14513547 16.4873751,8.77708427 C16.4873751,9.61806053 16.3831993,10.3605869 16.1748438,11.0046877 C15.9664903,11.6487885 15.6920779,12.1579835 15.3515967,12.5322912 C15.0111135,12.9017381 14.8408768,13.2177069 14.8408768,13.4802088 C14.8408768,13.8690989 14.950134,14.2470467 15.1686524,14.6140632 C15.3871688,14.9810779 15.692074,15.2593736 16.0833737,15.4489579 C16.3933622,15.5996539 16.8812097,15.7880192 17.5469277,16.0140632 C18.2126438,16.2401053 18.8072058,16.4552069 19.3306332,16.6593755 C19.8540606,16.8635421 20.2046989,17.0506941 20.3825617,17.2208333 C20.5655079,17.3958343 20.7077966,17.6315958 20.8094316,17.9281249 C20.9110686,18.2246542 20.9669686,18.4774295 20.9771315,18.6864582 L21,19 L5,19 Z" id="Page-1"></path>
        </g>
    </g>
</svg>