<?xml version="1.0" encoding="UTF-8"?>
<svg width="26px" height="24px" viewBox="0 0 26 24" version="1.1" xmlns="http://www.w3.org/2000/svg" xmlns:xlink="http://www.w3.org/1999/xlink">
    <!-- Generator: Sketch 58 (84663) - https://sketch.com -->
    <title>me_normal_dark</title>
    <desc>Created with Sketch.</desc>
    <g id="Symbols" stroke="none" stroke-width="1" fill="none" fill-rule="evenodd">
        <g id="me_normal_dark" stroke="#C5CFE0">
            <path d="M5.54839208,18.5 L20.450259,18.5 C20.4269551,18.3812098 20.3892306,18.2442511 20.3364429,18.0902413 C20.2594608,17.8656392 20.1586005,17.6985212 20.0369402,17.5821446 C19.9185232,17.4688698 19.6158238,17.3073062 19.148936,17.1251932 C18.6328574,16.9238911 18.0451951,16.7112856 17.3861677,16.4875146 C16.7023056,16.2553098 16.1975578,16.0604177 15.8653643,15.8989267 C15.3864698,15.6669028 15.0078189,15.3212965 14.7390349,14.8698537 C14.4755348,14.4272873 14.3408768,13.9614728 14.3408768,13.4802088 C14.3408768,13.0650802 14.5664163,12.6464686 14.9817257,12.1958458 C15.2703043,11.8785972 15.5112973,11.4314148 15.6991151,10.8507977 C15.8904178,10.259413 15.9873751,9.5683381 15.9873751,8.77708427 C15.9873751,8.20346792 15.9033932,7.70083186 15.7381126,7.26711314 C15.5770152,6.84437466 15.3625243,6.51589011 15.0961953,6.27495119 C14.8150425,6.0206002 14.5009179,5.82891258 14.1510663,5.69795804 C13.7992098,5.56625366 13.4177226,5.5 13.0038101,5.5 C12.5893867,5.5 12.2047092,5.56642498 11.8470432,5.69866133 C11.493215,5.82947882 11.1790405,6.02053808 10.9014252,6.27364931 C10.6369869,6.51474795 10.4232315,6.84372731 10.2618878,7.26711212 C10.0966068,7.70083186 10.0126249,8.20346792 10.0126249,8.77708427 C10.0126249,9.56775706 10.1106803,10.2582421 10.3041421,10.8491019 C10.4944552,11.4303396 10.7368949,11.8781319 11.0240038,12.1937747 C11.4362128,12.6418566 11.6591232,13.0618567 11.6591232,13.4802088 C11.6591232,13.9654274 11.5261708,14.4322485 11.2653429,14.8725452 C10.998985,15.3221786 10.6213081,15.6668272 10.1428541,15.8986383 C9.81006389,16.0604179 9.30531655,16.2553098 8.62145527,16.487515 C7.96193957,16.7114511 7.37124106,16.9242454 6.84954323,17.1257833 C6.37819677,17.307868 6.0732189,17.4694763 5.95543565,17.5821446 C5.83774824,17.6947215 5.73704307,17.8693234 5.65926614,18.1129818 C5.60963685,18.2684597 5.5727037,18.3986911 5.54839208,18.5 Z" id="Page-1"></path>
        </g>
    </g>
</svg>