<?xml version="1.0" encoding="UTF-8"?>
<svg width="24px" height="24px" viewBox="0 0 24 24" version="1.1" xmlns="http://www.w3.org/2000/svg" xmlns:xlink="http://www.w3.org/1999/xlink">
    <!-- Generator: Sketch 58 (84663) - https://sketch.com -->
    <title>icon_network_light</title>
    <desc>Created with Sketch.</desc>
    <g id="Symbols" stroke="none" stroke-width="1" fill="none" fill-rule="evenodd">
        <g id="Sidebar" transform="translate(4.000000, -451.000000)">
            <g transform="translate(-4.000000, 0.000000)" id="net">
                <g transform="translate(0.000000, 436.000000)">
                    <g id="Group-31">
                        <g id="icon_network_light" transform="translate(0.000000, 15.000000)">
                            <g id="Group-23" transform="translate(4.000000, 4.000000)" fill="#536076" fill-rule="nonzero">
                                <path d="M15,8.01413428 C15,3.86468039 11.6421356,0.500883392 7.5,0.500883392 C3.35786438,0.500883392 0,3.86468039 0,8.01413428 C0,12.1635882 3.35786438,15.5273852 7.5,15.5273852 C11.6421356,15.5273852 15,12.1635882 15,8.01413428 Z M1,8.01413428 C1,4.41794091 3.91014913,1.50265018 7.5,1.50265018 C11.0898509,1.50265018 14,4.41794091 14,8.01413428 C14,11.6103276 11.0898509,14.5256184 7.5,14.5256184 C3.91014913,14.5256184 1,11.6103276 1,8.01413428 Z" id="Oval-2"></path>
                                <path d="M11.5,8.01413428 C11.5,3.90017338 9.80335262,0.500883392 7.5,0.500883392 C5.19664738,0.500883392 3.5,3.90017338 3.5,8.01413428 C3.5,12.1280952 5.19664738,15.5273852 7.5,15.5273852 C9.80335262,15.5273852 11.5,12.1280952 11.5,8.01413428 Z M4.5,8.01413428 C4.5,4.38244792 5.93735937,1.50265018 7.5,1.50265018 C9.06264063,1.50265018 10.5,4.38244792 10.5,8.01413428 C10.5,11.6458206 9.06264063,14.5256184 7.5,14.5256184 C5.93735937,14.5256184 4.5,11.6458206 4.5,8.01413428 Z" id="Oval-2"></path>
                                <path d="M8,1.04029628 L7.99966667,8.01329628 L13.9583333,8.01413428 L13.9583333,9.01590106 L7.99966667,9.01529628 L8,14.9879723 L7,14.9879723 L6.99966667,9.01529628 L1.04166667,9.01590106 L1.04166667,8.01413428 L6.99966667,8.01329628 L7,1.04029628 L8,1.04029628 Z" id="Combined-Shape"></path>
                            </g>
                            <rect id="矩形" stroke="#979797" fill="#D8D8D8" opacity="0" x="0" y="0" width="24" height="24"></rect>
                        </g>
                    </g>
                </g>
            </g>
        </g>
    </g>
</svg>