<?xml version="1.0" encoding="UTF-8" standalone="no"?>
<svg
   xmlns:dc="http://purl.org/dc/elements/1.1/"
   xmlns:cc="http://creativecommons.org/ns#"
   xmlns:rdf="http://www.w3.org/1999/02/22-rdf-syntax-ns#"
   xmlns:svg="http://www.w3.org/2000/svg"
   xmlns="http://www.w3.org/2000/svg"
   xmlns:sodipodi="http://sodipodi.sourceforge.net/DTD/sodipodi-0.dtd"
   xmlns:inkscape="http://www.inkscape.org/namespaces/inkscape"
   width="30"
   height="20"
   viewBox="0 0 30 20"
   version="1.1"
   id="svg12"
   sodipodi:docname="Esc.svg"
   inkscape:version="0.92.1 r15371">
  <metadata
     id="metadata16">
    <rdf:RDF>
      <cc:Work
         rdf:about="">
        <dc:format>image/svg+xml</dc:format>
        <dc:type
           rdf:resource="http://purl.org/dc/dcmitype/StillImage" />
        <dc:title>img_upload</dc:title>
      </cc:Work>
    </rdf:RDF>
  </metadata>
  <sodipodi:namedview
     pagecolor="#ffffff"
     bordercolor="#666666"
     borderopacity="1"
     objecttolerance="10"
     gridtolerance="10"
     guidetolerance="10"
     inkscape:pageopacity="0"
     inkscape:pageshadow="2"
     inkscape:window-width="1920"
     inkscape:window-height="998"
     id="namedview14"
     showgrid="false"
     inkscape:zoom="9.8333333"
     inkscape:cx="-7.016949"
     inkscape:cy="11.79661"
     inkscape:window-x="0"
     inkscape:window-y="0"
     inkscape:window-maximized="1"
     inkscape:current-layer="svg12" />
  <!-- Generator: Sketch 44.1 (41455) - http://www.bohemiancoding.com/sketch -->
  <title
     id="title2">img_upload</title>
  <desc
     id="desc4">Created with Sketch.</desc>
  <defs
     id="defs6" />
  <g
     id="g14"
     transform="translate(0.1525421,0.2372881)">
    <path
       style="opacity:0.1;fill:#ffffff"
       inkscape:connector-curvature="0"
       d="M 25.667,19.5 H 4.333 C 2.225,19.5 0.5,17.775 0.5,15.667 V 4.333 C 0.5,2.225 2.225,0.5 4.333,0.5 h 21.334 c 2.108,0 3.833,1.725 3.833,3.833 v 11.334 c 0,2.108 -1.725,3.833 -3.833,3.833 z"
       id="path2" />
    <path
       inkscape:connector-curvature="0"
       d="m 13.981,12.627 c 0.528,0.37 1.098,0.554 1.708,0.554 0.817,0 1.226,-0.259 1.226,-0.777 0,-0.221 -0.089,-0.402 -0.268,-0.546 -0.179,-0.144 -0.541,-0.314 -1.087,-0.511 -0.657,-0.256 -1.083,-0.508 -1.28,-0.758 -0.196,-0.25 -0.295,-0.554 -0.295,-0.91 0,-0.508 0.222,-0.914 0.667,-1.219 C 15.098,8.154 15.645,8 16.295,8 c 0.503,0 0.971,0.085 1.403,0.254 V 9.233 C 17.255,8.957 16.754,8.818 16.193,8.818 c -0.336,0 -0.609,0.071 -0.819,0.212 -0.211,0.142 -0.316,0.328 -0.316,0.56 0,0.228 0.076,0.406 0.228,0.534 0.152,0.128 0.488,0.292 1.009,0.492 0.66,0.238 1.107,0.485 1.339,0.741 0.232,0.256 0.348,0.572 0.348,0.948 0,0.525 -0.222,0.94 -0.667,1.242 C 16.87,13.85 16.295,14 15.588,14 14.974,14 14.439,13.888 13.982,13.663 v -1.036 z"
       id="path4" />
    <path
       inkscape:connector-curvature="0"
       d="m 23.012,13.587 c -0.435,0.259 -0.96,0.389 -1.574,0.389 -0.823,0 -1.485,-0.263 -1.985,-0.789 -0.501,-0.526 -0.751,-1.207 -0.751,-2.043 0,-0.929 0.27,-1.676 0.81,-2.245 0.54,-0.569 1.263,-0.853 2.168,-0.853 0.521,0 0.967,0.092 1.337,0.277 V 9.316 C 22.616,9.022 22.17,8.876 21.68,8.876 c -0.576,0 -1.045,0.2 -1.407,0.597 -0.362,0.398 -0.543,0.927 -0.543,1.589 0,0.652 0.171,1.162 0.512,1.531 0.341,0.369 0.801,0.553 1.381,0.553 0.49,0 0.953,-0.16 1.389,-0.481 z"
       id="path6" />
    <path
       style="fill:none;stroke:#cbcbcb;stroke-miterlimit:10"
       inkscape:connector-curvature="0"
       stroke-miterlimit="10"
       d="m 25.5,19.5 h -21 c -2.209,0 -4,-1.791 -4,-4 v -11 c 0,-2.209 1.791,-4 4,-4 h 21 c 2.209,0 4,1.791 4,4 v 11 c 0,2.209 -1.791,4 -4,4 z"
       id="path8" />
    <g
       id="g12">
      <path
         inkscape:connector-curvature="0"
         d="M 13,14.108 H 8 v -9 h 5 v 1 H 9 v 3 h 3 v 1 H 9 v 3 h 4 z"
         id="path10" />
    </g>
  </g>
</svg>
