<?xml version="1.0" encoding="UTF-8" standalone="no"?>
<svg
   xmlns:dc="http://purl.org/dc/elements/1.1/"
   xmlns:cc="http://creativecommons.org/ns#"
   xmlns:rdf="http://www.w3.org/1999/02/22-rdf-syntax-ns#"
   xmlns:svg="http://www.w3.org/2000/svg"
   xmlns="http://www.w3.org/2000/svg"
   xmlns:sodipodi="http://sodipodi.sourceforge.net/DTD/sodipodi-0.dtd"
   xmlns:inkscape="http://www.inkscape.org/namespaces/inkscape"
   width="44"
   height="20"
   viewBox="0 0 44 20"
   version="1.1"
   id="svg12"
   sodipodi:docname="notes.svg"
   inkscape:version="0.92.1 r15371">
  <metadata
     id="metadata16">
    <rdf:RDF>
      <cc:Work
         rdf:about="">
        <dc:format>image/svg+xml</dc:format>
        <dc:type
           rdf:resource="http://purl.org/dc/dcmitype/StillImage" />
        <dc:title>img_upload</dc:title>
      </cc:Work>
    </rdf:RDF>
  </metadata>
  <sodipodi:namedview
     pagecolor="#ffffff"
     bordercolor="#666666"
     borderopacity="1"
     objecttolerance="10"
     gridtolerance="10"
     guidetolerance="10"
     inkscape:pageopacity="0"
     inkscape:pageshadow="2"
     inkscape:window-width="1920"
     inkscape:window-height="998"
     id="namedview14"
     showgrid="false"
     inkscape:zoom="9.8333333"
     inkscape:cx="12.20339"
     inkscape:cy="12"
     inkscape:window-x="0"
     inkscape:window-y="0"
     inkscape:window-maximized="1"
     inkscape:current-layer="svg12" />
  <!-- Generator: Sketch 44.1 (41455) - http://www.bohemiancoding.com/sketch -->
  <title
     id="title2">img_upload</title>
  <desc
     id="desc4">Created with Sketch.</desc>
  <defs
     id="defs6" />
  <g
     id="g16"
     transform="translate(-0.95770337,-0.67404077)">
    <g
       id="g8">
      <path
         d="m 18.516,6 c -0.276,0 -0.5,0.224 -0.5,0.5 V 16 h -5.469 c -0.276,0 -0.531,0.224 -0.531,0.5 v 0.528 l -3,-0.025 V 16.5 c 0,-0.276 -0.224,-0.5 -0.5,-0.5 h -5.5 V 6.5 C 3.016,6.224 2.792,6 2.516,6 2.24,6 2.016,6.224 2.016,6.5 v 10 c 0,0.276 0.224,0.5 0.5,0.5 h 5.5 v 0.5 c 0,0.275 0.222,0.482 0.497,0.484 L 12.544,18 c 10e-4,0 0.002,0 0.003,0 0.132,0 0.243,-0.036 0.337,-0.13 0.094,-0.094 0.132,-0.206 0.132,-0.339 V 17 h 5.5 c 0.276,0 0.5,-0.224 0.5,-0.5 v -10 c 0,-0.276 -0.223,-0.5 -0.5,-0.5 z"
         id="path2"
         inkscape:connector-curvature="0"
         style="fill:#727171" />
      <path
         d="M 9.714,14.919 C 7.402,13.552 5.093,14.529 4.303,14.947 4.17,15.017 4.017,14.916 4.017,14.764 V 4.022 C 4.017,3.95 4.051,3.884 4.112,3.848 4.644,3.535 7.314,2.132 9.92,3.841 9.979,3.88 10.017,3.95 10.017,4.021 v 10.73 c -10e-4,0.16 -0.169,0.248 -0.303,0.168 z"
         id="path4"
         inkscape:connector-curvature="0"
         style="fill:#727171" />
      <path
         d="m 16.714,14.919 c -2.312,-1.367 -4.621,-0.39 -5.411,0.028 -0.133,0.07 -0.286,-0.031 -0.286,-0.183 V 4.022 c 0,-0.072 0.034,-0.138 0.095,-0.174 0.532,-0.313 3.202,-1.716 5.808,-0.007 0.059,0.039 0.097,0.109 0.097,0.18 v 10.73 c -0.001,0.16 -0.169,0.248 -0.303,0.168 z"
         id="path6"
         inkscape:connector-curvature="0"
         style="fill:#727171" />
    </g>
    <g
       id="g14">
      <path
         d="m 24.207,9.224 c -0.031,0.5 -0.047,1.078 -0.047,1.734 v 3.234 c 0.375,-0.344 0.797,-0.766 1.266,-1.266 0.156,0.188 0.359,0.422 0.609,0.703 -0.375,0.344 -0.797,0.727 -1.266,1.148 -0.469,0.421 -0.813,0.773 -1.031,1.055 -0.281,-0.313 -0.531,-0.563 -0.75,-0.75 0.25,-0.219 0.359,-0.547 0.328,-0.984 V 10.02 c -0.531,0 -1.016,0.016 -1.453,0.047 v -0.89 c 0.438,0.031 0.766,0.047 0.984,0.047 z M 24.91,7.583 C 24.816,7.677 24.597,7.911 24.254,8.286 23.473,7.473 22.863,6.88 22.426,6.505 c 0.156,-0.094 0.359,-0.297 0.609,-0.609 0.562,0.406 1.187,0.968 1.875,1.687 z m 5.156,0.797 h 1.547 c -0.031,0.438 -0.047,1.078 -0.047,1.922 0,0.844 0.016,1.422 0.047,1.734 h -1.547 v 3 c 0,0.281 0.141,0.422 0.422,0.422 h 0.75 c 0.281,0.031 0.469,-0.375 0.563,-1.219 0.25,0.219 0.594,0.359 1.031,0.422 -0.219,1.094 -0.641,1.641 -1.266,1.641 h -1.547 c -0.531,0 -0.797,-0.297 -0.797,-0.891 v -3.375 h -1.031 c -0.063,0.563 -0.148,1.086 -0.258,1.57 -0.11,0.484 -0.258,0.898 -0.445,1.242 -0.187,0.344 -0.461,0.68 -0.82,1.008 -0.359,0.328 -0.758,0.633 -1.195,0.914 -0.219,-0.188 -0.547,-0.391 -0.984,-0.609 0.719,-0.375 1.219,-0.68 1.5,-0.914 0.281,-0.234 0.516,-0.516 0.703,-0.844 0.187,-0.328 0.328,-0.711 0.422,-1.148 0.094,-0.437 0.156,-0.844 0.188,-1.219 h -1.406 c 0.031,-0.813 0.047,-1.547 0.047,-2.203 0,-0.656 -0.016,-1.141 -0.047,-1.453 h 3.281 c 0.531,-1.344 0.844,-2.25 0.938,-2.719 0.406,0.188 0.797,0.359 1.172,0.516 -0.252,0.25 -0.659,0.984 -1.221,2.203 z M 27.957,7.771 C 27.707,7.896 27.441,8.052 27.16,8.24 26.722,7.271 26.347,6.584 26.035,6.177 c 0.219,-0.094 0.453,-0.234 0.703,-0.422 0.437,0.625 0.844,1.297 1.219,2.016 z m 2.765,3.515 V 9.13 h -3.891 v 2.156 z"
         id="path10"
         inkscape:connector-curvature="0"
         style="fill:#727171" />
      <path
         d="m 37.988,8.614 v 3.375 c 0,0.75 0.016,1.422 0.047,2.016 h -0.891 v -0.703 h -1.969 v 1.313 h -0.938 c 0.031,-0.531 0.047,-1.219 0.047,-2.063 V 8.567 c 0,-0.75 -0.016,-1.438 -0.047,-2.063 h 3.797 c -0.031,0.657 -0.046,1.36 -0.046,2.11 z M 37.144,9.411 V 7.302 h -1.969 v 2.109 z m 0,3.047 v -2.297 h -1.969 v 2.297 z m 6.844,-4.266 v 6.75 c 0.031,0.594 -0.07,0.977 -0.305,1.148 -0.235,0.171 -0.758,0.32 -1.57,0.445 -0.063,-0.344 -0.219,-0.719 -0.469,-1.125 0.531,0.031 0.906,0.023 1.125,-0.023 0.219,-0.046 0.313,-0.211 0.281,-0.492 v -2.484 h -2.766 c -0.188,1.625 -0.719,3.078 -1.594,4.359 -0.313,-0.281 -0.641,-0.484 -0.984,-0.609 1.219,-1.219 1.781,-3.203 1.688,-5.953 V 8.239 c 0,-0.75 -0.016,-1.453 -0.047,-2.109 h 4.688 C 44.003,6.724 43.988,7.411 43.988,8.192 Z M 43.05,8.896 V 6.927 h -2.719 v 1.969 z m 0,2.718 V 9.692 h -2.719 v 1.922 z"
         id="path12"
         inkscape:connector-curvature="0"
         style="fill:#727171" />
    </g>
  </g>
</svg>
