<?xml version="1.0" encoding="UTF-8"?>
<svg width="32px" height="32px" viewBox="0 0 32 32" version="1.1" xmlns="http://www.w3.org/2000/svg" xmlns:xlink="http://www.w3.org/1999/xlink">
    <!-- Generator: Sketch 58 (84663) - https://sketch.com -->
    <title>preferences-system-32px</title>
    <desc>Created with Sketch.</desc>
    <defs>
        <filter x="-13.3%" y="-13.3%" width="126.7%" height="126.7%" filterUnits="objectBoundingBox" id="filter-1">
            <feOffset dx="0" dy="1" in="SourceAlpha" result="shadowOffsetOuter1"></feOffset>
            <feGaussianBlur stdDeviation="0.5" in="shadowOffsetOuter1" result="shadowBlurOuter1"></feGaussianBlur>
            <feComposite in="shadowBlurOuter1" in2="SourceAlpha" operator="out" result="shadowBlurOuter1"></feComposite>
            <feColorMatrix values="0 0 0 0 0   0 0 0 0 0   0 0 0 0 0  0 0 0 0.15 0" type="matrix" in="shadowBlurOuter1" result="shadowMatrixOuter1"></feColorMatrix>
            <feMerge>
                <feMergeNode in="shadowMatrixOuter1"></feMergeNode>
                <feMergeNode in="SourceGraphic"></feMergeNode>
            </feMerge>
        </filter>
        <linearGradient x1="52.6111718%" y1="101.319636%" x2="47.9444041%" y2="2.22044605e-14%" id="linearGradient-2">
            <stop stop-color="#410DD9" offset="0%"></stop>
            <stop stop-color="#2F54F8" offset="100%"></stop>
        </linearGradient>
        <circle id="path-3" cx="15" cy="15" r="9.54545455"></circle>
        <filter x="-7.9%" y="-7.9%" width="115.7%" height="115.7%" filterUnits="objectBoundingBox" id="filter-4">
            <feGaussianBlur stdDeviation="1" in="SourceAlpha" result="shadowBlurInner1"></feGaussianBlur>
            <feOffset dx="0" dy="1" in="shadowBlurInner1" result="shadowOffsetInner1"></feOffset>
            <feComposite in="shadowOffsetInner1" in2="SourceAlpha" operator="arithmetic" k2="-1" k3="1" result="shadowInnerInner1"></feComposite>
            <feColorMatrix values="0 0 0 0 0   0 0 0 0 0   0 0 0 0 0  0 0 0 0.5 0" type="matrix" in="shadowInnerInner1"></feColorMatrix>
        </filter>
        <radialGradient cx="50%" cy="50%" fx="50%" fy="50%" r="50.3926794%" gradientTransform="translate(0.500000,0.500000),scale(0.999957,1.000000),rotate(90.000000),scale(1.000000,0.950670),translate(-0.500000,-0.500000)" id="radialGradient-5">
            <stop stop-color="#E2E5ED" offset="0%"></stop>
            <stop stop-color="#9DA3B5" offset="48.4048274%"></stop>
            <stop stop-color="#E7ECFF" offset="100%"></stop>
        </radialGradient>
    </defs>
    <g id="preferences-system-32px" stroke="none" stroke-width="1" fill="none" fill-rule="evenodd">
        <g id="13-settings" filter="url(#filter-1)" transform="translate(1.000000, 1.000000)">
            <circle id="Oval" fill="url(#linearGradient-2)" cx="15" cy="15" r="15"></circle>
            <g id="Oval">
                <use fill-opacity="0.5" fill="#000000" fill-rule="evenodd" xlink:href="#path-3"></use>
                <use fill="black" fill-opacity="1" filter="url(#filter-4)" xlink:href="#path-3"></use>
            </g>
            <g id="Group-12" transform="translate(1.363636, 1.363636)">
                <path d="M14.6163234,5.45449783 C15.1229004,5.51496309 15.6152637,5.62171444 16.0890636,5.77040236 L15.9900626,6.88121515 C16.3715158,7.02250818 16.7370892,7.19716009 17.0833352,7.40168109 L17.9103764,6.60012746 C18.3346527,6.86054695 18.7333579,7.15857583 19.1018502,7.48957233 L18.4988357,8.51134257 C18.7897689,8.80819726 19.0543562,9.13154837 19.2887522,9.47750355 L20.4756056,9.08580361 C20.7409565,9.48895502 20.9716192,9.91696593 21.1633466,10.3655891 L20.0943858,11.0790039 C20.2360142,11.4838113 20.3415498,11.9058968 20.4070767,12.3412966 L21.7510293,12.52508 C21.7953367,12.8698739 21.8181818,13.2213863 21.8181818,13.5782344 C21.8181818,13.6972005 21.8156428,13.8155735 21.8106159,13.9333022 L20.448543,14.1190662 C20.4016806,14.5756088 20.3110507,15.0189875 20.1809747,15.4448281 L21.3745771,16.2425658 C21.2248689,16.6774614 21.0395313,17.0957746 20.8220513,17.494018 L19.4601138,17.0449715 C19.2158992,17.4432971 18.9329144,17.8147182 18.6164961,18.1538328 L19.3643668,19.4205087 C19.0456178,19.7330618 18.7014004,20.0197361 18.3351155,20.2771309 L17.2868395,19.2614765 C16.8895772,19.5152676 16.4647461,19.7288601 16.0179212,19.8966106 L16.1500904,21.3666503 C15.7337604,21.5009203 15.3028542,21.6027352 14.860353,21.6691137 L14.3496119,20.2900865 C14.1151707,20.3146417 13.877219,20.3272263 13.6363636,20.3272263 C13.3955083,20.3272263 13.1575566,20.3146417 12.9231153,20.2900865 L12.4123742,21.6691137 C11.9698731,21.6027352 11.5389669,21.5009203 11.1226368,21.3666503 L11.2548061,19.8966106 C10.8079812,19.7288601 10.3831501,19.5152676 9.98588777,19.2614765 L8.93771481,20.2772033 C8.57101039,20.0195221 8.22642324,19.7324946 7.90736578,19.4195332 L8.65623119,18.1538328 C8.33981289,17.8147182 8.05682811,17.4432971 7.81261352,17.0449715 L6.45067597,17.494018 C6.23319598,17.0957746 6.04785834,16.6774614 5.89815015,16.2425658 L7.09175252,15.4448281 C6.96167657,15.0189875 6.87104671,14.5756088 6.82418427,14.1190662 L5.46211138,13.9333022 C5.45708451,13.8155735 5.45454545,13.6972005 5.45454545,13.5782344 C5.45454545,13.2213863 5.47739054,12.8698739 5.52169798,12.52508 L6.86565053,12.3412966 C6.93117748,11.9058968 7.03671303,11.4838113 7.17834145,11.0790039 L6.10938066,10.3655891 C6.30110806,9.91696593 6.53177081,9.48895502 6.79712168,9.08580361 L7.98397503,9.47750355 C8.2183711,9.13154837 8.48295837,8.80819726 8.77389162,8.51134257 L8.16986466,7.49048185 C8.53863908,7.15912176 8.937686,6.86078546 9.36235087,6.60012746 L10.1893921,7.40168109 C10.535638,7.19716009 10.9012114,7.02250818 11.2826647,6.88121515 L11.1826616,5.77071691 C11.6567579,5.62186857 12.149446,5.51501086 12.6563673,5.4545022 L13.0383094,6.48705336 C13.2353916,6.46979655 13.4348614,6.46098834 13.6363636,6.46098834 C13.8378658,6.46098834 14.0373357,6.46979655 14.2344179,6.48705336 Z M13.6363636,7.93297891 C10.6239014,7.93297891 8.18181818,10.3750621 8.18181818,13.3875244 C8.18181818,16.3999866 10.6239014,18.8420698 13.6363636,18.8420698 C16.6488259,18.8420698 19.0909091,16.3999866 19.0909091,13.3875244 C19.0909091,10.3750621 16.6488259,7.93297891 13.6363636,7.93297891 Z" id="Combined-Shape" fill="#585F6C"></path>
                <path d="M11.8914651,0.459723098 L12.4487911,2.07652147 C12.5478145,2.36384913 12.8250582,2.55093329 13.128566,2.53525313 C13.3345868,2.52460945 13.5037162,2.51928761 13.6359543,2.51928761 C13.7681927,2.51928761 13.9373227,2.52460947 14.1433442,2.53525321 C14.4468402,2.55092567 14.7240729,2.36384895 14.8231114,2.07653921 L15.3804434,0.459723098 C15.4938295,0.130790813 15.8366956,-0.0600053855 16.1759883,0.0170226724 L17.0315724,0.211262005 C17.3693336,0.287942359 17.5959377,0.6056722 17.5584325,0.949991567 L17.3690608,2.68853424 C17.3377279,2.97618803 17.4913732,3.25228948 17.7523378,3.37728523 L18.7377493,3.84927365 C19.0004975,3.97512371 19.3141786,3.92012656 19.5184407,3.71239638 L20.7267503,2.48357164 C20.9711725,2.23499962 21.3637337,2.21084277 21.6367888,2.42757103 L22.3273551,2.9756847 C22.5975002,3.1901033 22.6649818,3.57248743 22.4845487,3.8664222 L21.5785506,5.34233971 C21.4270926,5.58907264 21.4479669,5.90455199 21.6306133,6.12917826 L22.3653516,7.03279046 C22.5473941,7.25667398 22.8506595,7.34171917 23.1225703,7.2451385 L24.7440964,6.66918455 C25.0695361,6.55359082 25.4300088,6.69958564 25.5832897,7.00906562 L25.9735569,7.79703035 C26.1276332,8.10811638 26.0233716,8.48530283 25.7313966,8.6730917 L24.3049362,9.59054514 C24.0596665,9.74829469 23.9418761,10.0445661 24.011877,10.3276597 L24.3140822,11.5498201 C24.3823264,11.8258092 24.6146586,12.0304847 24.8970492,12.0633909 L26.6361944,12.2660492 C26.9681021,12.3047256 27.2230702,12.5782438 27.23838,12.9120464 L27.2711926,13.6274678 L27.2716748,13.6765581 L27.2716748,13.6765581 L27.262415,14.0301014 C27.2567323,14.2470676 27.0924092,14.4268549 26.8768273,14.4519761 L24.987159,14.6721745 C24.6932981,14.7064174 24.455052,14.9262636 24.3973509,15.2164315 L24.1355401,16.5330282 C24.0809101,16.8077518 24.1998573,17.0879372 24.4354404,17.2394566 L25.9220658,18.1956063 C26.206128,18.3783059 26.3136253,18.7414352 26.1747923,19.0493247 L25.8359994,19.8006647 C25.6901469,20.1241213 25.3205947,20.281649 24.9862399,20.1628887 L23.4241149,19.6080336 C23.1434222,19.5083337 22.8304989,19.602389 22.6512886,19.840322 L21.8109455,20.956024 C21.6423433,21.1798727 21.6278822,21.4840896 21.7744905,21.7229222 L22.7091285,23.2454956 C22.8861304,23.5338408 22.8249073,23.9083703 22.5653024,24.1253448 L21.9646083,24.6273973 C21.6920498,24.8551982 21.2902578,24.8355689 21.0412024,24.582285 L19.8602064,23.3812376 C19.652229,23.1697292 19.3313651,23.1169568 19.0666021,23.2507137 L17.7958027,23.8927151 C17.5422421,24.0208127 17.3946769,24.2927023 17.4254386,24.5751128 L17.6178062,26.3411592 C17.6550512,26.6830896 17.4317839,26.9992206 17.0970842,27.0784654 L16.3629799,27.2522747 C16.0220683,27.3329902 15.6754686,27.1422084 15.561297,26.8109976 L15.0048359,25.196708 C14.9054804,24.9084784 14.6268544,24.7212384 14.3224496,24.7381363 L13.6737447,24.7741467 C13.6485705,24.7755442 13.6233381,24.7755442 13.5981639,24.7741467 L12.949459,24.7381363 C12.6450542,24.7212384 12.3664282,24.9084784 12.2670726,25.196708 L11.7106115,26.8109976 C11.59644,27.1422084 11.2498402,27.3329902 10.9089286,27.2522747 L10.1748244,27.0784654 C9.84012469,26.9992206 9.61685736,26.6830896 9.65410232,26.3411592 L9.84646992,24.5751128 C9.87723164,24.2927023 9.7296664,24.0208127 9.47610583,23.8927151 L8.20530648,23.2507137 C7.94054344,23.1169568 7.61967951,23.1697292 7.41170219,23.3812376 L6.2307062,24.582285 C5.98165078,24.8355689 5.57985872,24.8551982 5.30730026,24.6273973 L4.70660619,24.1253448 C4.44700126,23.9083703 4.38577813,23.5338408 4.56278005,23.2454956 L5.49741807,21.7229222 C5.6440264,21.4840896 5.62956525,21.1798727 5.46096308,20.956024 L4.62061998,19.840322 C4.44140962,19.602389 4.12848635,19.5083337 3.84779366,19.6080336 L2.28566865,20.1628887 C1.95131386,20.281649 1.58176165,20.1241213 1.43590915,19.8006647 L1.09711623,19.0493247 C0.958283267,18.7414352 1.06578053,18.3783059 1.34984273,18.1956063 L2.8364682,17.2394566 C3.07205127,17.0879372 3.19099843,16.8077518 3.13636847,16.5330282 L2.87455763,15.2164315 C2.81685652,14.9262636 2.57861046,14.7064174 2.28474956,14.6721745 L0.395081243,14.4519761 C0.179499369,14.4268549 0.0151762537,14.2470676 0.00949357884,14.0301014 L0.000233741968,13.6765581 L0.000715996689,13.6274678 L0.000715996689,13.6274678 L0.0335285789,12.9120464 C0.0488383329,12.5782438 0.303806467,12.3047256 0.635714156,12.2660492 L2.37485937,12.0633909 C2.65724997,12.0304847 2.88958213,11.8258092 2.95782633,11.5498201 L3.26003153,10.3276597 C3.33003247,10.0445661 3.21224203,9.74829469 2.96697237,9.59054514 L1.54051191,8.6730917 C1.24853697,8.48530283 1.14427537,8.10811638 1.29835166,7.79703035 L1.68861889,7.00906562 C1.84189972,6.69958564 2.20237248,6.55359082 2.52781213,6.66918455 L4.14933829,7.2451385 C4.42124907,7.34171917 4.72451442,7.25667398 4.90655691,7.03279046 L5.64129527,6.12917826 C5.8239417,5.90455199 5.84481599,5.58907264 5.69335795,5.34233971 L4.78735986,3.8664222 C4.60692678,3.57248743 4.67440833,3.1901033 4.9445535,2.9756847 L5.63511978,2.42757103 C5.90817488,2.21084277 6.30073609,2.23499962 6.54515822,2.48357164 L7.75346786,3.71239638 C7.95773,3.92012656 8.27141105,3.97512371 8.53415924,3.84927365 L9.51957076,3.37728523 C9.78053534,3.25228948 9.93418061,2.97618803 9.90284776,2.68853424 L9.71347602,0.949991567 C9.67597084,0.6056722 9.90257497,0.287942359 10.2403361,0.211262005 L11.0959203,0.0170226724 C11.435213,-0.0600053855 11.778079,0.130790813 11.8914651,0.459723098 Z M11.5697121,15.1704545 C10.1830998,12.7687715 7.55597621,11.5298271 4.96407786,11.7958098 C4.83868315,12.3895783 4.77272727,13.0052685 4.77272727,13.6363636 C4.77272727,17.7695979 7.6017986,21.2420672 11.4300115,22.2224828 C12.737265,20.1498325 12.8800571,17.4400387 11.5697121,15.1704545 Z M22.3086095,11.7957823 C19.7173306,11.5295538 17.0897805,12.7685066 15.7030152,15.1704545 C14.3926702,17.4400387 14.5354623,20.1498325 15.843564,22.2229934 C19.6709287,21.2420672 22.5,17.7695979 22.5,13.6363636 C22.5,13.0244572 22.437994,12.4270331 22.3199224,11.8500318 L22.3199224,11.8500318 Z M13.6363803,12.2717531 C12.8832647,12.2717531 12.2727439,12.8822739 12.2727439,13.6353895 C12.2727439,14.388505 12.8832647,14.9990258 13.6363803,14.9990258 C14.3894958,14.9990258 15.0000166,14.388505 15.0000166,13.6353895 C15.0000166,12.8822739 14.3894958,12.2717531 13.6363803,12.2717531 Z M13.6363636,4.77272727 C11.1746712,4.77272727 8.94736638,5.77625974 7.34185082,7.39778908 C8.37000725,9.8602981 10.8010825,11.5909091 13.6363636,11.5909091 C16.4716448,11.5909091 18.90272,9.8602981 19.9314955,7.39654204 C18.3253609,5.77625974 16.098056,4.77272727 13.6363636,4.77272727 Z" id="Combined-Shape" fill="url(#radialGradient-5)"></path>
            </g>
        </g>
    </g>
</svg>