<?xml version="1.0" encoding="UTF-8"?>
<svg width="24px" height="24px" viewBox="0 0 24 24" version="1.1" xmlns="http://www.w3.org/2000/svg" xmlns:xlink="http://www.w3.org/1999/xlink">
    <!-- Generator: Sketch 47 (45396) - http://www.bohemiancoding.com/sketch -->
    <title>icon_network_light</title>
    <desc>Created with Sketch.</desc>
    <defs></defs>
    <g id="Symbols" stroke="none" stroke-width="1" fill="none" fill-rule="evenodd">
        <g id="Group-32" fill-rule="nonzero" fill="#303030">
            <g id="Group-23" transform="translate(5.000000, 3.000000)">
                <path d="M15,8 C15,3.85786438 11.6421356,0.5 7.5,0.5 C3.35786438,0.5 0,3.85786438 0,8 C0,12.1421356 3.35786438,15.5 7.5,15.5 C11.6421356,15.5 15,12.1421356 15,8 Z M1,8 C1,4.41014913 3.91014913,1.5 7.5,1.5 C11.0898509,1.5 14,4.41014913 14,8 C14,11.5898509 11.0898509,14.5 7.5,14.5 C3.91014913,14.5 1,11.5898509 1,8 Z" id="Oval-2"></path>
                <path d="M11.5,8 C11.5,3.89329477 9.80335262,0.5 7.5,0.5 C5.19664738,0.5 3.5,3.89329477 3.5,8 C3.5,12.1067052 5.19664738,15.5 7.5,15.5 C9.80335262,15.5 11.5,12.1067052 11.5,8 Z M4.5,8 C4.5,4.37471874 5.93735937,1.5 7.5,1.5 C9.06264063,1.5 10.5,4.37471874 10.5,8 C10.5,11.6252813 9.06264063,14.5 7.5,14.5 C5.93735937,14.5 4.5,11.6252813 4.5,8 Z" id="Oval-2"></path>
                <path d="M8,9 L13.4583333,9 L13.9583333,9 L13.9583333,8 L13.4583333,8 L8,8 L8,1.53846154 L8,1.03846154 L7,1.03846154 L7,1.53846154 L7,8 L1.54166667,8 L1.04166667,8 L1.04166667,9 L1.54166667,9 L7,9 L7,14.4615385 L7,14.9615385 L8,14.9615385 L8,14.4615385 L8,9 Z" id="Combined-Shape"></path>
            </g>
        </g>
    </g>
</svg>