<?xml version="1.0" encoding="UTF-8"?>
<svg width="16px" height="16px" viewBox="0 0 16 16" version="1.1" xmlns="http://www.w3.org/2000/svg" xmlns:xlink="http://www.w3.org/1999/xlink">
    <!-- Generator: Sketch 43 (38999) - http://www.bohemiancoding.com/sketch -->
    <title>deepin-monitor</title>
    <desc>Created with Sketch.</desc>
    <defs>
        <linearGradient x1="56.4842886%" y1="100%" x2="38.7631206%" y2="0%" id="linearGradient-1">
            <stop stop-color="#5F3EFF" offset="0%"></stop>
            <stop stop-color="#6E62FF" offset="100%"></stop>
        </linearGradient>
    </defs>
    <g id="Page-1" stroke="none" stroke-width="1" fill="none" fill-rule="evenodd">
        <g id="deepin-monitor">
            <circle id="Oval-3" fill="url(#linearGradient-1)" cx="8" cy="8" r="7"></circle>
            <rect id="Rectangle" fill="#FFFFFF" opacity="0.5" x="7" y="13.5" width="2" height="1"></rect>
            <path d="M10.5240754,13.1678311 C12.4344248,12.2330238 13.75,10.2701464 13.75,8 C13.75,4.82436269 11.1756373,2.25 8,2.25 C4.82436269,2.25 2.25,4.82436269 2.25,8 C2.25,10.2751446 3.57137455,12.2416656 5.48855121,13.1739906" id="Oval-2" stroke="#FFFFFF" stroke-width="0.5" opacity="0.504359149" stroke-linecap="round"></path>
            <path d="M3.5,8.92109321 C3.5,8.92109321 3.83333333,9.73689171 4.5,9.73689171 C6,9.73689171 5.5,5.25 7,5.25 C8.5,5.25 7.66666667,9.73689171 9.16666667,9.73689171 C10.1666667,9.73689171 9.66666667,7.69739548 10.5,7.69739548 C11.3333333,7.69739548 10.6666667,9.94084133 12.5,9.73689171" id="Path-5" stroke="#FFFFFF" stroke-width="0.8" stroke-linecap="round" stroke-linejoin="round"></path>
        </g>
    </g>
</svg>